<svg id="Группа_1" data-name="Группа 1" xmlns="http://www.w3.org/2000/svg" width="50" height="50" viewBox="0 0 50 50">
  <defs>
    <style>
      .cls-1 {
        fill: #5389c5;
      }

      .cls-2 {
        fill: #fff;
        fill-rule: evenodd;
      }
    </style>
  </defs>
  <path id="Rectangle_1_copy_2" data-name="Rectangle 1 copy 2" class="cls-1" d="M5,0H45a5,5,0,0,1,5,5V50a0,0,0,0,1,0,0H0a0,0,0,0,1,0,0V5A5,5,0,0,1,5,0Z"/>
  <path id="Rounded_Rectangle_1_copy_3" data-name="Rounded Rectangle 1 copy 3" class="cls-2" d="M403,132h24a2,2,0,0,1,0,4H403A2,2,0,0,1,403,132Zm0,10h24a2,2,0,0,1,0,4H403A2,2,0,0,1,403,142Zm0,10h24a2,2,0,0,1,0,4H403A2,2,0,0,1,403,152Z" transform="translate(-390 -119)"/>
</svg>
